<?xml version="1.0" encoding="UTF-8"?>
<svg width="256" height="256" viewBox="0 0 256 256" xmlns="http://www.w3.org/2000/svg">
  <defs>
    <linearGradient id="g" x1="0" y1="0" x2="1" y2="1">
      <stop offset="0" stop-color="#4f7cff"/>
      <stop offset="1" stop-color="#00d4a3"/>
    </linearGradient>
    <filter id="s" x="-20%" y="-20%" width="140%" height="140%">
      <feDropShadow dx="0" dy="6" stdDeviation="10" flood-color="#000" flood-opacity="0.35"/>
    </filter>
  </defs>
  <rect x="22" y="22" width="212" height="212" rx="44" fill="#0b1630"/>
  <rect x="34" y="34" width="188" height="188" rx="36" fill="url(#g)" opacity="0.16"/>
  <g filter="url(#s)">
    <path d="M128 60c28 0 54 14 70 36l-22 14c-11-15-29-24-48-24-18 0-35 8-46 21l36 0v24H70v-48h24v19c16-26 45-42 78-42z" fill="url(#g)"/>
    <path d="M128 196c-28 0-54-14-70-36l22-14c11 15 29 24 48 24 18 0 35-8 46-21h-36v-24h48v48h-24v-19c-16 26-45 42-78 42z" fill="url(#g)"/>
  </g>
  <circle cx="128" cy="128" r="10" fill="url(#g)"/>
</svg>

